<mxfile host="app.diagrams.net" agent="Mozilla/5.0 (Macintosh; Intel Mac OS X 10_15_7) AppleWebKit/537.36 (KHTML, like Gecko) Chrome/131.0.0.0 Safari/537.36 Edg/131.0.0.0" version="27.1.6">
  <diagram id="prtHgNgQTEPvFCAcTncT" name="Page-1">
    <mxGraphModel dx="978" dy="610" grid="1" gridSize="10" guides="1" tooltips="1" connect="1" arrows="1" fold="1" page="1" pageScale="1" pageWidth="827" pageHeight="1169" math="0" shadow="0">
      <root>
        <mxCell id="0" />
        <mxCell id="1" parent="0" />
        <mxCell id="zYVTBsQXzAoOFQJtITAH-1" value="API渠道-贷前绑卡" style="swimlane;childLayout=stackLayout;resizeParent=1;resizeParentMax=0;startSize=20;html=1;labelBackgroundColor=none;fillColor=#B2C9AB;strokeColor=#788AA3;fontColor=#46495D;" vertex="1" parent="1">
          <mxGeometry x="160" y="300" width="940" height="890" as="geometry" />
        </mxCell>
        <mxCell id="zYVTBsQXzAoOFQJtITAH-18" value="ugchanprod" style="swimlane;startSize=20;html=1;labelBackgroundColor=none;fillColor=#B2C9AB;strokeColor=#788AA3;fontColor=#46495D;" vertex="1" parent="zYVTBsQXzAoOFQJtITAH-1">
          <mxGeometry y="20" width="210" height="870" as="geometry" />
        </mxCell>
        <mxCell id="zYVTBsQXzAoOFQJtITAH-19" value="绑卡发验证码" style="rounded=0;whiteSpace=wrap;html=1;strokeColor=#788AA3;fontColor=#46495D;fillColor=#B2C9AB;" vertex="1" parent="zYVTBsQXzAoOFQJtITAH-18">
          <mxGeometry x="30" y="40" width="90" height="40" as="geometry" />
        </mxCell>
        <mxCell id="zYVTBsQXzAoOFQJtITAH-22" value="绑卡校验验证码" style="rounded=0;whiteSpace=wrap;html=1;strokeColor=#788AA3;fontColor=#46495D;fillColor=#B2C9AB;" vertex="1" parent="zYVTBsQXzAoOFQJtITAH-18">
          <mxGeometry x="30" y="310" width="90" height="40" as="geometry" />
        </mxCell>
        <mxCell id="zYVTBsQXzAoOFQJtITAH-2" value="apiopfcore" style="swimlane;startSize=20;html=1;labelBackgroundColor=none;fillColor=#B2C9AB;strokeColor=#788AA3;fontColor=#46495D;" vertex="1" parent="zYVTBsQXzAoOFQJtITAH-1">
          <mxGeometry x="210" y="20" width="210" height="870" as="geometry" />
        </mxCell>
        <mxCell id="zYVTBsQXzAoOFQJtITAH-8" value="" style="edgeStyle=orthogonalEdgeStyle;rounded=0;orthogonalLoop=1;jettySize=auto;html=1;strokeColor=#788AA3;fontColor=#46495D;fillColor=#B2C9AB;" edge="1" parent="zYVTBsQXzAoOFQJtITAH-2" source="zYVTBsQXzAoOFQJtITAH-6" target="zYVTBsQXzAoOFQJtITAH-7">
          <mxGeometry relative="1" as="geometry" />
        </mxCell>
        <mxCell id="zYVTBsQXzAoOFQJtITAH-6" value="绑卡发验证码接口" style="rounded=0;whiteSpace=wrap;html=1;strokeColor=#788AA3;fontColor=#46495D;fillColor=#B2C9AB;" vertex="1" parent="zYVTBsQXzAoOFQJtITAH-2">
          <mxGeometry x="25" y="40" width="90" height="40" as="geometry" />
        </mxCell>
        <mxCell id="zYVTBsQXzAoOFQJtITAH-14" value="" style="edgeStyle=orthogonalEdgeStyle;rounded=0;orthogonalLoop=1;jettySize=auto;html=1;strokeColor=#788AA3;fontColor=#46495D;fillColor=#B2C9AB;" edge="1" parent="zYVTBsQXzAoOFQJtITAH-2" source="zYVTBsQXzAoOFQJtITAH-7" target="zYVTBsQXzAoOFQJtITAH-13">
          <mxGeometry relative="1" as="geometry" />
        </mxCell>
        <mxCell id="zYVTBsQXzAoOFQJtITAH-7" value="&lt;div&gt;根据四要素信息&lt;/div&gt;初始化绑卡id" style="rounded=0;whiteSpace=wrap;html=1;strokeColor=#788AA3;fontColor=#46495D;fillColor=#B2C9AB;" vertex="1" parent="zYVTBsQXzAoOFQJtITAH-2">
          <mxGeometry x="25" y="120" width="90" height="40" as="geometry" />
        </mxCell>
        <mxCell id="zYVTBsQXzAoOFQJtITAH-13" value="&lt;div&gt;请求支付系统发签约验证码&lt;/div&gt;" style="rounded=0;whiteSpace=wrap;html=1;strokeColor=#788AA3;fontColor=#46495D;fillColor=#B2C9AB;" vertex="1" parent="zYVTBsQXzAoOFQJtITAH-2">
          <mxGeometry x="25" y="220" width="90" height="40" as="geometry" />
        </mxCell>
        <mxCell id="zYVTBsQXzAoOFQJtITAH-27" value="" style="edgeStyle=orthogonalEdgeStyle;rounded=0;orthogonalLoop=1;jettySize=auto;html=1;strokeColor=#788AA3;fontColor=#46495D;fillColor=#B2C9AB;" edge="1" parent="zYVTBsQXzAoOFQJtITAH-2" source="zYVTBsQXzAoOFQJtITAH-24" target="zYVTBsQXzAoOFQJtITAH-26">
          <mxGeometry relative="1" as="geometry" />
        </mxCell>
        <mxCell id="zYVTBsQXzAoOFQJtITAH-24" value="绑卡验证码校验接口" style="rounded=0;whiteSpace=wrap;html=1;strokeColor=#788AA3;fontColor=#46495D;fillColor=#B2C9AB;" vertex="1" parent="zYVTBsQXzAoOFQJtITAH-2">
          <mxGeometry x="44" y="310" width="90" height="40" as="geometry" />
        </mxCell>
        <mxCell id="zYVTBsQXzAoOFQJtITAH-32" value="" style="edgeStyle=orthogonalEdgeStyle;rounded=0;orthogonalLoop=1;jettySize=auto;html=1;strokeColor=#788AA3;fontColor=#46495D;fillColor=#B2C9AB;" edge="1" parent="zYVTBsQXzAoOFQJtITAH-2" source="zYVTBsQXzAoOFQJtITAH-26" target="zYVTBsQXzAoOFQJtITAH-31">
          <mxGeometry relative="1" as="geometry" />
        </mxCell>
        <mxCell id="zYVTBsQXzAoOFQJtITAH-26" value="绑卡验证码校验" style="whiteSpace=wrap;html=1;fillColor=#B2C9AB;strokeColor=#788AA3;fontColor=#46495D;rounded=0;" vertex="1" parent="zYVTBsQXzAoOFQJtITAH-2">
          <mxGeometry x="44" y="400" width="89" height="50" as="geometry" />
        </mxCell>
        <mxCell id="zYVTBsQXzAoOFQJtITAH-34" value="是" style="edgeStyle=orthogonalEdgeStyle;rounded=0;orthogonalLoop=1;jettySize=auto;html=1;strokeColor=#788AA3;fontColor=#46495D;fillColor=#B2C9AB;" edge="1" parent="zYVTBsQXzAoOFQJtITAH-2" source="zYVTBsQXzAoOFQJtITAH-31" target="zYVTBsQXzAoOFQJtITAH-33">
          <mxGeometry relative="1" as="geometry" />
        </mxCell>
        <mxCell id="zYVTBsQXzAoOFQJtITAH-31" value="验证码是否正确" style="rhombus;whiteSpace=wrap;html=1;fillColor=#B2C9AB;strokeColor=#788AA3;fontColor=#46495D;rounded=0;" vertex="1" parent="zYVTBsQXzAoOFQJtITAH-2">
          <mxGeometry x="28.5" y="490" width="121" height="50" as="geometry" />
        </mxCell>
        <mxCell id="zYVTBsQXzAoOFQJtITAH-41" value="" style="edgeStyle=orthogonalEdgeStyle;rounded=0;orthogonalLoop=1;jettySize=auto;html=1;strokeColor=#788AA3;fontColor=#46495D;fillColor=#B2C9AB;" edge="1" parent="zYVTBsQXzAoOFQJtITAH-2" source="zYVTBsQXzAoOFQJtITAH-33" target="zYVTBsQXzAoOFQJtITAH-40">
          <mxGeometry relative="1" as="geometry" />
        </mxCell>
        <mxCell id="zYVTBsQXzAoOFQJtITAH-33" value="根据绑卡id请求绑定人卡关联关系" style="whiteSpace=wrap;html=1;fillColor=#B2C9AB;strokeColor=#788AA3;fontColor=#46495D;rounded=0;" vertex="1" parent="zYVTBsQXzAoOFQJtITAH-2">
          <mxGeometry x="25" y="590" width="90.5" height="60" as="geometry" />
        </mxCell>
        <mxCell id="zYVTBsQXzAoOFQJtITAH-47" style="edgeStyle=orthogonalEdgeStyle;rounded=0;orthogonalLoop=1;jettySize=auto;html=1;entryX=0.5;entryY=0;entryDx=0;entryDy=0;strokeColor=#788AA3;fontColor=#46495D;fillColor=#B2C9AB;" edge="1" parent="zYVTBsQXzAoOFQJtITAH-2" source="zYVTBsQXzAoOFQJtITAH-40" target="zYVTBsQXzAoOFQJtITAH-46">
          <mxGeometry relative="1" as="geometry" />
        </mxCell>
        <mxCell id="zYVTBsQXzAoOFQJtITAH-40" value="请求保存绑卡日志" style="whiteSpace=wrap;html=1;fillColor=#B2C9AB;strokeColor=#788AA3;fontColor=#46495D;rounded=0;" vertex="1" parent="zYVTBsQXzAoOFQJtITAH-2">
          <mxGeometry x="20.130000000000003" y="700" width="99.75" height="60" as="geometry" />
        </mxCell>
        <mxCell id="zYVTBsQXzAoOFQJtITAH-46" value="请求保存绑卡日志" style="whiteSpace=wrap;html=1;fillColor=#B2C9AB;strokeColor=#788AA3;fontColor=#46495D;rounded=0;" vertex="1" parent="zYVTBsQXzAoOFQJtITAH-2">
          <mxGeometry x="20.129999999999995" y="800" width="99.75" height="60" as="geometry" />
        </mxCell>
        <mxCell id="zYVTBsQXzAoOFQJtITAH-3" value="bank-core" style="swimlane;startSize=20;html=1;labelBackgroundColor=none;fillColor=#B2C9AB;strokeColor=#788AA3;fontColor=#46495D;" vertex="1" parent="zYVTBsQXzAoOFQJtITAH-1">
          <mxGeometry x="420" y="20" width="140" height="870" as="geometry" />
        </mxCell>
        <mxCell id="zYVTBsQXzAoOFQJtITAH-10" value="初始化绑卡id接口" style="rounded=0;whiteSpace=wrap;html=1;strokeColor=#788AA3;fontColor=#46495D;fillColor=#B2C9AB;" vertex="1" parent="zYVTBsQXzAoOFQJtITAH-3">
          <mxGeometry x="26" y="120" width="90" height="40" as="geometry" />
        </mxCell>
        <mxCell id="zYVTBsQXzAoOFQJtITAH-37" value="绑卡接口" style="rounded=0;whiteSpace=wrap;html=1;strokeColor=#788AA3;fontColor=#46495D;fillColor=#B2C9AB;" vertex="1" parent="zYVTBsQXzAoOFQJtITAH-3">
          <mxGeometry x="26" y="600" width="90" height="40" as="geometry" />
        </mxCell>
        <mxCell id="zYVTBsQXzAoOFQJtITAH-4" value="pay-system" style="swimlane;startSize=20;html=1;labelBackgroundColor=none;fillColor=#B2C9AB;strokeColor=#788AA3;fontColor=#46495D;" vertex="1" parent="zYVTBsQXzAoOFQJtITAH-1">
          <mxGeometry x="560" y="20" width="140" height="870" as="geometry" />
        </mxCell>
        <mxCell id="zYVTBsQXzAoOFQJtITAH-15" value="&lt;div&gt;支付签约验证接口&lt;/div&gt;" style="rounded=0;whiteSpace=wrap;html=1;strokeColor=#788AA3;fontColor=#46495D;fillColor=#B2C9AB;" vertex="1" parent="zYVTBsQXzAoOFQJtITAH-4">
          <mxGeometry x="25" y="220" width="90" height="40" as="geometry" />
        </mxCell>
        <mxCell id="zYVTBsQXzAoOFQJtITAH-29" value="&lt;div&gt;支付签约验证接口&lt;/div&gt;" style="rounded=0;whiteSpace=wrap;html=1;strokeColor=#788AA3;fontColor=#46495D;fillColor=#B2C9AB;" vertex="1" parent="zYVTBsQXzAoOFQJtITAH-4">
          <mxGeometry x="25" y="405" width="90" height="40" as="geometry" />
        </mxCell>
        <mxCell id="zYVTBsQXzAoOFQJtITAH-5" value="psengincore" style="swimlane;startSize=20;html=1;labelBackgroundColor=none;fillColor=#B2C9AB;strokeColor=#788AA3;fontColor=#46495D;" vertex="1" parent="zYVTBsQXzAoOFQJtITAH-1">
          <mxGeometry x="700" y="20" width="120" height="870" as="geometry" />
        </mxCell>
        <mxCell id="zYVTBsQXzAoOFQJtITAH-42" value="绑卡日志存储接口" style="whiteSpace=wrap;html=1;fillColor=#B2C9AB;strokeColor=#788AA3;fontColor=#46495D;rounded=0;" vertex="1" parent="zYVTBsQXzAoOFQJtITAH-5">
          <mxGeometry x="10.129999999999995" y="700" width="99.75" height="60" as="geometry" />
        </mxCell>
        <mxCell id="zYVTBsQXzAoOFQJtITAH-44" value="合同系统" style="swimlane;startSize=20;html=1;labelBackgroundColor=none;fillColor=#B2C9AB;strokeColor=#788AA3;fontColor=#46495D;" vertex="1" parent="zYVTBsQXzAoOFQJtITAH-1">
          <mxGeometry x="820" y="20" width="120" height="870" as="geometry" />
        </mxCell>
        <mxCell id="zYVTBsQXzAoOFQJtITAH-45" value="签署绑卡协议接口" style="whiteSpace=wrap;html=1;fillColor=#B2C9AB;strokeColor=#788AA3;fontColor=#46495D;rounded=0;" vertex="1" parent="zYVTBsQXzAoOFQJtITAH-44">
          <mxGeometry x="10.129999999999995" y="800" width="99.75" height="60" as="geometry" />
        </mxCell>
        <mxCell id="zYVTBsQXzAoOFQJtITAH-11" style="edgeStyle=orthogonalEdgeStyle;rounded=0;orthogonalLoop=1;jettySize=auto;html=1;entryX=0;entryY=0.5;entryDx=0;entryDy=0;strokeColor=#788AA3;fontColor=#46495D;fillColor=#B2C9AB;" edge="1" parent="zYVTBsQXzAoOFQJtITAH-1" source="zYVTBsQXzAoOFQJtITAH-7" target="zYVTBsQXzAoOFQJtITAH-10">
          <mxGeometry relative="1" as="geometry" />
        </mxCell>
        <mxCell id="zYVTBsQXzAoOFQJtITAH-12" value="initBankCard" style="edgeLabel;html=1;align=center;verticalAlign=middle;resizable=0;points=[];strokeColor=#788AA3;fontColor=#46495D;fillColor=#B2C9AB;" vertex="1" connectable="0" parent="zYVTBsQXzAoOFQJtITAH-11">
          <mxGeometry x="-0.1833" y="1" relative="1" as="geometry">
            <mxPoint x="11" y="1" as="offset" />
          </mxGeometry>
        </mxCell>
        <mxCell id="zYVTBsQXzAoOFQJtITAH-16" style="edgeStyle=orthogonalEdgeStyle;rounded=0;orthogonalLoop=1;jettySize=auto;html=1;entryX=0;entryY=0.5;entryDx=0;entryDy=0;strokeColor=#788AA3;fontColor=#46495D;fillColor=#B2C9AB;" edge="1" parent="zYVTBsQXzAoOFQJtITAH-1" source="zYVTBsQXzAoOFQJtITAH-13" target="zYVTBsQXzAoOFQJtITAH-15">
          <mxGeometry relative="1" as="geometry" />
        </mxCell>
        <mxCell id="zYVTBsQXzAoOFQJtITAH-17" value="signRequest,指定宝付" style="edgeLabel;html=1;align=center;verticalAlign=middle;resizable=0;points=[];strokeColor=#788AA3;fontColor=#46495D;fillColor=#B2C9AB;" vertex="1" connectable="0" parent="zYVTBsQXzAoOFQJtITAH-16">
          <mxGeometry x="-0.0912" y="1" relative="1" as="geometry">
            <mxPoint as="offset" />
          </mxGeometry>
        </mxCell>
        <mxCell id="zYVTBsQXzAoOFQJtITAH-20" style="edgeStyle=orthogonalEdgeStyle;rounded=0;orthogonalLoop=1;jettySize=auto;html=1;entryX=0;entryY=0.5;entryDx=0;entryDy=0;strokeColor=#788AA3;fontColor=#46495D;fillColor=#B2C9AB;" edge="1" parent="zYVTBsQXzAoOFQJtITAH-1" source="zYVTBsQXzAoOFQJtITAH-19" target="zYVTBsQXzAoOFQJtITAH-6">
          <mxGeometry relative="1" as="geometry" />
        </mxCell>
        <mxCell id="zYVTBsQXzAoOFQJtITAH-21" value="&lt;div style=&quot;background-color:#fff2e2;color:#080808&quot;&gt;&lt;pre style=&quot;font-family: &amp;quot;JetBrains Mono&amp;quot;, monospace;&quot;&gt;&lt;span style=&quot;color:#067d17;&quot;&gt;get-verification-code&lt;/span&gt;&lt;/pre&gt;&lt;/div&gt;" style="edgeLabel;html=1;align=center;verticalAlign=middle;resizable=0;points=[];strokeColor=#788AA3;fontColor=#46495D;fillColor=#B2C9AB;fontSize=7;" vertex="1" connectable="0" parent="zYVTBsQXzAoOFQJtITAH-20">
          <mxGeometry x="-0.1155" y="-1" relative="1" as="geometry">
            <mxPoint as="offset" />
          </mxGeometry>
        </mxCell>
        <mxCell id="zYVTBsQXzAoOFQJtITAH-23" style="edgeStyle=orthogonalEdgeStyle;rounded=0;orthogonalLoop=1;jettySize=auto;html=1;strokeColor=#788AA3;fontColor=#46495D;fillColor=#B2C9AB;entryX=0;entryY=0.5;entryDx=0;entryDy=0;" edge="1" parent="zYVTBsQXzAoOFQJtITAH-1" source="zYVTBsQXzAoOFQJtITAH-22" target="zYVTBsQXzAoOFQJtITAH-24">
          <mxGeometry relative="1" as="geometry">
            <mxPoint x="230" y="350" as="targetPoint" />
          </mxGeometry>
        </mxCell>
        <mxCell id="zYVTBsQXzAoOFQJtITAH-25" value="&lt;font style=&quot;font-size: 9px;&quot;&gt;verify-verification-code&lt;/font&gt;" style="edgeLabel;html=1;align=center;verticalAlign=middle;resizable=0;points=[];strokeColor=#788AA3;fontColor=#46495D;fillColor=#B2C9AB;" vertex="1" connectable="0" parent="zYVTBsQXzAoOFQJtITAH-23">
          <mxGeometry x="-0.205" y="2" relative="1" as="geometry">
            <mxPoint x="4" y="2" as="offset" />
          </mxGeometry>
        </mxCell>
        <mxCell id="zYVTBsQXzAoOFQJtITAH-28" style="edgeStyle=orthogonalEdgeStyle;rounded=0;orthogonalLoop=1;jettySize=auto;html=1;strokeColor=#788AA3;fontColor=#46495D;fillColor=#B2C9AB;entryX=0;entryY=0.5;entryDx=0;entryDy=0;" edge="1" parent="zYVTBsQXzAoOFQJtITAH-1" source="zYVTBsQXzAoOFQJtITAH-26" target="zYVTBsQXzAoOFQJtITAH-29">
          <mxGeometry relative="1" as="geometry">
            <mxPoint x="580" y="445" as="targetPoint" />
          </mxGeometry>
        </mxCell>
        <mxCell id="zYVTBsQXzAoOFQJtITAH-30" value="signConfirm" style="edgeLabel;html=1;align=center;verticalAlign=middle;resizable=0;points=[];strokeColor=#788AA3;fontColor=#46495D;fillColor=#B2C9AB;" vertex="1" connectable="0" parent="zYVTBsQXzAoOFQJtITAH-28">
          <mxGeometry x="-0.0236" relative="1" as="geometry">
            <mxPoint as="offset" />
          </mxGeometry>
        </mxCell>
        <mxCell id="zYVTBsQXzAoOFQJtITAH-38" style="edgeStyle=orthogonalEdgeStyle;rounded=0;orthogonalLoop=1;jettySize=auto;html=1;entryX=0;entryY=0.5;entryDx=0;entryDy=0;strokeColor=#788AA3;fontColor=#46495D;fillColor=#B2C9AB;" edge="1" parent="zYVTBsQXzAoOFQJtITAH-1" source="zYVTBsQXzAoOFQJtITAH-33" target="zYVTBsQXzAoOFQJtITAH-37">
          <mxGeometry relative="1" as="geometry" />
        </mxCell>
        <mxCell id="zYVTBsQXzAoOFQJtITAH-39" value="bindBankCardByCardId" style="edgeLabel;html=1;align=center;verticalAlign=middle;resizable=0;points=[];strokeColor=#788AA3;fontColor=#46495D;fillColor=#B2C9AB;fontSize=9;" vertex="1" connectable="0" parent="zYVTBsQXzAoOFQJtITAH-38">
          <mxGeometry x="-0.1151" y="-1" relative="1" as="geometry">
            <mxPoint as="offset" />
          </mxGeometry>
        </mxCell>
        <mxCell id="zYVTBsQXzAoOFQJtITAH-43" style="edgeStyle=orthogonalEdgeStyle;rounded=0;orthogonalLoop=1;jettySize=auto;html=1;strokeColor=#788AA3;fontColor=#46495D;fillColor=#B2C9AB;" edge="1" parent="zYVTBsQXzAoOFQJtITAH-1" source="zYVTBsQXzAoOFQJtITAH-40" target="zYVTBsQXzAoOFQJtITAH-42">
          <mxGeometry relative="1" as="geometry" />
        </mxCell>
        <mxCell id="zYVTBsQXzAoOFQJtITAH-48" style="edgeStyle=orthogonalEdgeStyle;rounded=0;orthogonalLoop=1;jettySize=auto;html=1;entryX=0;entryY=0.5;entryDx=0;entryDy=0;strokeColor=#788AA3;fontColor=#46495D;fillColor=#B2C9AB;" edge="1" parent="zYVTBsQXzAoOFQJtITAH-1" source="zYVTBsQXzAoOFQJtITAH-46" target="zYVTBsQXzAoOFQJtITAH-45">
          <mxGeometry relative="1" as="geometry" />
        </mxCell>
        <mxCell id="zYVTBsQXzAoOFQJtITAH-49" value="generate-entrust-deductions-contract" style="edgeLabel;html=1;align=center;verticalAlign=middle;resizable=0;points=[];strokeColor=#788AA3;fontColor=#46495D;fillColor=#B2C9AB;" vertex="1" connectable="0" parent="zYVTBsQXzAoOFQJtITAH-48">
          <mxGeometry x="0.0685" y="1" relative="1" as="geometry">
            <mxPoint as="offset" />
          </mxGeometry>
        </mxCell>
      </root>
    </mxGraphModel>
  </diagram>
</mxfile>
